<?xml version="1.0" encoding="utf-8"?>
<!-- Generator: Adobe Illustrator 21.0.0, SVG Export Plug-In . SVG Version: 6.00 Build 0)  -->
<svg version="1.1" id="Capa_1" xmlns="http://www.w3.org/2000/svg" xmlns:xlink="http://www.w3.org/1999/xlink" x="0px" y="0px"
	 viewBox="0 0 572.8 199.9" style="enable-background:new 0 0 572.8 199.9;" xml:space="preserve">
<style type="text/css">
	.st0{fill:#8AB53E;}
	.st1{fill:#8BB53C;}
	.st2{fill-rule:evenodd;clip-rule:evenodd;fill:#294C91;}
</style>
<title>christmas-hat</title>
<title>christmas-hat</title>
<g>
	<g>
		<path class="st0" d="M160.7,74c0.2,0.1,0.4,0.1,0.6,0.1c0.7,0,1.4-0.5,1.7-1.2c0.4-1.2,1.7-1.9,2.9-1.5c0.6,0.2,1.2,0.4,1.9,0.4
			c2.6-0.1,4.7-1.8,5.4-4.1c0.3-0.9-0.2-2-1.1-2.3c-0.9-0.3-1.9,0.2-2.2,1.1c-0.2,0.6-0.6,1.1-1.2,1.3c-0.5,0.3-1.2,0.3-1.7,0.1
			c-3-1-6.3,0.6-7.3,3.7C159.3,72.7,159.8,73.7,160.7,74"/>
		<path class="st0" d="M152.7,96.7c0.2,0.1,0.4,0.1,0.6,0.1c0.7,0,1.4-0.5,1.7-1.2c0.5-1.6,2.3-2.5,3.9-2c3.4,1.2,7.2-0.7,8.4-4.2
			c0.3-0.9-0.2-2-1.1-2.3c-0.9-0.3-1.9,0.2-2.2,1.1c-0.5,1.7-2.3,2.5-3.9,2c-3.4-1.2-7.2,0.7-8.4,4.2
			C151.3,95.3,151.8,96.3,152.7,96.7"/>
		<path class="st0" d="M156.8,86.5c0.2,0.1,0.4,0.1,0.6,0.1c0.7,0,1.4-0.5,1.7-1.2c0.3-0.8,0.8-1.4,1.6-1.8c0.7-0.4,1.6-0.4,2.4-0.2
			c3.4,1.2,7.2-0.7,8.4-4.2c0.3-0.9-0.2-2-1.1-2.3c-0.9-0.3-1.9,0.2-2.2,1.1c-0.5,1.6-2.2,2.5-3.8,2c-1-0.3-2-0.5-3-0.4
			c-2.6,0.4-4.7,2.1-5.5,4.6C155.4,85.2,155.9,86.2,156.8,86.5"/>
		<g>
			<path class="st1" d="M184.3,101c-0.6-1-1.6-1.6-2.9-1.6H89.3l-1.1-21.5c-0.1-1.8-1.5-3.1-3.3-3.1H69.3c-2.2,0-4.2,1.8-4.6,4
				c-0.4,2.2,1.1,4,3.2,4h12.5l4.3,81c-3.8,2.3-6.8,6.2-7.6,10.7c-1.2,7.1,3.5,12.8,10.5,12.8c5.6,0,11.1-3.7,13.6-8.8h24
				c0.8,5.1,4.9,8.8,10.5,8.8c7,0,13.7-5.7,15-12.8c1.3-7.1-3.5-12.8-10.5-12.8c-5.6,0-11.1,3.7-13.6,8.8h-24
				c-0.7-4.9-4.6-8.6-10-8.8l-0.2-4.6h62.9c1.7,0,3.4-1.1,4.2-2.7l24.8-49.7C184.8,103.3,184.9,102,184.3,101 M139.2,167.6
				c3.7,0,6.2,3.1,5.6,6.8c-0.7,3.8-4.2,6.8-8,6.8c-3.7,0-6.2-3-5.6-6.8C131.9,170.6,135.4,167.6,139.2,167.6 M91,167.6
				c3.7,0,6.2,3.1,5.6,6.8c-0.7,3.8-4.2,6.8-8,6.8c-3.7,0-6.2-3-5.6-6.8C83.7,170.6,87.3,167.6,91,167.6 M153.8,149H91.9l-2.2-41.8
				h84.9L153.8,149z"/>
			<path class="st2" d="M261.8,123.6c-0.8,0-1.2-0.7-0.8-1.4l9.5-24.2c0.3-0.8,1.1-1.4,2-1.4h6.9c0.9,0,1.7,0.7,2.1,1.4l9.5,24.2
				c0.3,0.8-0.2,1.4-0.9,1.4h-6.8c-0.7,0-1.6-0.7-1.9-1.4l-0.2-0.8c-0.3-0.8-1.1-1.4-2-1.4h-6.7c-0.8,0-1.7,0.7-1.9,1.4l-0.3,0.8
				c-0.2,0.8-1,1.4-1.9,1.4H261.8z M276.2,106.1c-0.3-0.8-0.7-0.8-0.9,0l-2.2,6.9c-0.2,0.8,0.3,1.3,1,1.3h3.2c0.8,0,1.3-0.6,1-1.3
				L276.2,106.1z"/>
			<path class="st2" d="M197.7,123.6c-0.8,0-1.4-0.7-1.4-1.5V98c0-0.8,0.7-1.5,1.4-1.5h6.8c0.8,0,1.5,0.7,1.5,1.5v17.8
				c0,0.8,0.7,1.4,1.4,1.4h10.4c0.8,0,1.4,0.7,1.4,1.4v3.4c0,0.9-0.7,1.5-1.4,1.5L197.7,123.6L197.7,123.6z"/>
			<path class="st2" d="M221,123.6c-0.9,0-1.2-0.7-0.9-1.4l9.5-24.2c0.3-0.8,1.2-1.4,2-1.4h7c0.7,0,1.7,0.7,2,1.4l9.5,24.2
				c0.3,0.8-0.1,1.4-0.9,1.4h-6.7c-0.8,0-1.7-0.7-1.9-1.4l-0.3-0.8c-0.3-0.8-1.1-1.4-1.9-1.4h-6.8c-0.8,0-1.6,0.7-1.9,1.4l-0.2,0.8
				c-0.3,0.8-1.1,1.4-1.9,1.4H221z M235.3,106.1c-0.3-0.8-0.7-0.8-0.8,0l-2.2,6.9c-0.3,0.8,0.2,1.3,1,1.3h3.2c0.8,0,1.2-0.6,1-1.3
				L235.3,106.1z"/>
			<path class="st2" d="M311.7,110.1c0.5,0.7,0.8,0.6,0.7-0.2l-0.2-3.3c0-0.8-0.1-2.1-0.1-2.8V98c0-0.8,0.7-1.5,1.5-1.5h6.3
				c0.8,0,1.5,0.7,1.5,1.5v24c0,0.9-0.7,1.5-1.5,1.5h-6.1c-0.9,0-1.9-0.6-2.4-1.2l-8.8-12.3c-0.5-0.7-0.8-0.6-0.8,0.3l0.2,3.2
				c0.1,0.7,0.1,2.1,0.1,2.9v5.6c0,0.9-0.7,1.5-1.4,1.5h-6.4c-0.7,0-1.4-0.7-1.4-1.5V98c0-0.8,0.7-1.5,1.4-1.5h6.2
				c0.8,0,1.8,0.6,2.3,1.2L311.7,110.1z"/>
			<path class="st2" d="M355.3,110c0,9.3-6.8,14.4-15.5,14.4c-9.3,0-15.5-5.2-15.5-14.4c0-8.5,6.3-14,15.5-14
				C350.3,96,355.3,102.9,355.3,110 M333.9,110c0,3.5,1.2,7.8,5.8,7.8c4.1,0,5.8-3.3,5.8-7.8c0-3.6-1.7-7.6-5.9-7.4
				C335.2,102.6,333.9,106.6,333.9,110"/>
			<path class="st2" d="M376.6,110.1c0.5,0.7,0.8,0.6,0.8-0.2l-0.2-3.3c0-0.8-0.1-2.1-0.1-2.8V98c0-0.8,0.6-1.5,1.5-1.5h6.4
				c0.7,0,1.4,0.7,1.4,1.5v24c0,0.9-0.7,1.5-1.4,1.5h-6.2c-0.8,0-1.8-0.6-2.3-1.2l-8.8-12.3c-0.5-0.7-0.8-0.6-0.8,0.3l0.3,3.2v2.9
				v5.6c0,0.9-0.7,1.5-1.4,1.5h-6.4c-0.7,0-1.4-0.7-1.4-1.5V98c0-0.8,0.7-1.5,1.4-1.5h6.2c0.8,0,1.8,0.6,2.3,1.2L376.6,110.1z"/>
			<path class="st2" d="M392.1,123.6c-0.8,0-1.4-0.7-1.4-1.5V98c0-0.8,0.7-1.5,1.4-1.5h6.8c0.9,0,1.4,0.7,1.4,1.5v24
				c0,0.9-0.6,1.5-1.4,1.5L392.1,123.6L392.1,123.6z"/>
			<path class="st2" d="M405.7,123.6c-0.7,0-1.4-0.7-1.4-1.5V98c0-0.8,0.7-1.5,1.4-1.5h8.8c0.8,0,1.6,0.7,1.9,1.4l4.3,14
				c0.2,0.9,0.6,0.9,0.8,0l4.3-14c0.3-0.8,1.1-1.4,1.9-1.4h8.8c0.8,0,1.4,0.7,1.4,1.5v24c0,0.9-0.7,1.5-1.4,1.5h-5.8
				c-0.8,0-1.4-0.7-1.4-1.5v-5.3v-2.9v-1.3c0.1-0.7,0.2-2.1,0.2-2.8l0.2-2c0.1-0.9,0.2-1.5,0.2-1.5c-0.1,0-0.3,0.7-0.5,1.4
				l-4.5,14.6c-0.3,0.8-1.1,1.4-1.9,1.4h-3.9c-0.8,0-1.7-0.7-1.9-1.4l-4.5-14.6c-0.2-0.8-0.5-1.4-0.5-1.4s0,0.7,0.1,1.5l0.1,1
				c0.1,0.8,0.2,2.1,0.3,2.9v1.2c0.1,0.9,0.1,2.2,0.1,2.9v6.2c0,0.9-0.6,1.5-1.4,1.5H405.7z"/>
			<path class="st2" d="M440.8,123.6c-0.8,0-1.2-0.7-0.9-1.4l9.5-24.2c0.3-0.8,1.2-1.4,2-1.4h7c0.9,0,1.7,0.7,2,1.4l9.5,24.2
				c0.3,0.8-0.1,1.4-0.9,1.4h-6.8c-0.8,0-1.7-0.7-1.9-1.4l-0.3-0.8c-0.3-0.8-1.1-1.4-1.9-1.4h-6.8c-0.8,0-1.6,0.7-1.9,1.4l-0.2,0.8
				c-0.3,0.8-1.1,1.4-1.9,1.4H440.8z M455.1,106.1c-0.3-0.8-0.7-0.8-0.8,0l-2.2,6.9c-0.3,0.8,0.2,1.3,1,1.3h3.2c0.8,0,1.2-0.6,1-1.3
				L455.1,106.1z"/>
			<path class="st1" d="M188.6,163.4c0-14.4,12.2-28.4,29.2-28.4c13.3,0,22.1,9.1,22.1,20.9c0,14.4-12.2,28.4-29.2,28.4
				C197.4,184.3,188.6,175.2,188.6,163.4 M230.9,156.4c0-7.8-5.2-13.7-14-13.7c-11.4,0-19.3,10.5-19.3,20.2c0,7.9,5.2,13.7,14,13.7
				C222.9,176.6,230.9,166.1,230.9,156.4"/>
			<path class="st1" d="M289.5,139.6c0.7-2.6,2.5-4.1,4.8-4.1c2.8,0,4.4,2,3.4,5.4l-10.9,39c-0.6,2.4-2,3.9-4.6,3.9h-0.1
				c-2.7,0-3.9-1.2-4.9-3.2l-15.8-31.7l-8.6,30.9c-0.7,2.6-2.5,4.1-4.7,4.1c-2.8,0-4.4-2-3.4-5.4l10.7-38.7c0.8-2.7,2.5-4.2,5.1-4.2
				h0.4c2.5,0,4.1,1.4,5.1,3.5l15.1,30.5L289.5,139.6z"/>
			<path class="st1" d="M306.1,183.5c-2.8,0-4.4-2-3.5-5.3l10.7-38.6c0.8-2.6,2.6-4.1,4.9-4.1c2.8,0,4.4,2,3.5,5.4l-9.7,35h21.2
				c2.2,0,3.9,1.7,3.9,3.8c0,2.2-1.8,3.8-3.9,3.8L306.1,183.5L306.1,183.5z"/>
			<path class="st1" d="M354.7,179.7c-0.7,2.6-2.5,4.1-4.8,4.1c-2.8,0-4.5-2-3.5-5.4l10.8-38.9c0.8-2.6,2.6-4.1,4.8-4.1
				c2.8,0,4.4,2,3.5,5.4L354.7,179.7z"/>
			<path class="st1" d="M414.3,139.6c0.7-2.6,2.5-4.1,4.8-4.1c2.8,0,4.4,2,3.4,5.4l-10.9,39c-0.6,2.4-2,3.9-4.6,3.9H407
				c-2.7,0-3.9-1.2-4.9-3.2l-15.8-31.7l-8.6,30.9c-0.7,2.6-2.5,4.1-4.7,4.1c-2.8,0-4.4-2-3.4-5.4l10.7-38.7c0.8-2.7,2.5-4.2,5.1-4.2
				h0.4c2.5,0,4.1,1.4,5.1,3.5l15.1,30.5L414.3,139.6z"/>
			<path class="st1" d="M428.3,183.5c-2.8,0-4.4-2-3.5-5.3l10.5-38.1c0.8-2.7,2.6-4.2,4.9-4.2h27.8c2.1,0,3.9,1.7,3.9,3.7
				c0,2.1-1.8,3.7-3.9,3.7h-25l-3.4,12.5h19.7c2.2,0,3.9,1.6,3.9,3.7c0,2-1.8,3.7-3.9,3.7h-21.8L434,176h23.3c2.1,0,3.9,1.7,3.9,3.7
				c0,2.1-1.8,3.7-3.9,3.7L428.3,183.5L428.3,183.5z"/>
			<path class="st0" d="M103.4,95.8c0.7-1.4,2.5-2.5,5.7-3.4c1.5-0.4,2.8-1.2,3.9-2.3c0.5-0.5,1-0.9,1.4-1.3c1.4-1.2,2.6-1.8,3.7-2
				c0,0,0,0,0.1,0c0.4,0,0.7,0,1,0c0.1,0,0.2,0,0.3,0.1c0.2,0,0.3,0.1,0.5,0.1c0.1,0,0.2,0.1,0.3,0.2c0.2,0.1,0.3,0.1,0.5,0.2
				c0.1,0.1,0.2,0.2,0.4,0.3c0.1,0.1,0.3,0.2,0.4,0.3c0.1,0.1,0.3,0.2,0.4,0.4c0.1,0.1,0.3,0.2,0.4,0.4c0.1,0.2,0.3,0.3,0.4,0.5
				c0.1,0.1,0.2,0.3,0.4,0.4c0.2,0.2,0.3,0.4,0.5,0.7c0.1,0.1,0.2,0.3,0.3,0.4c0.2,0.3,0.4,0.6,0.6,0.9c0.1,0.1,0.2,0.3,0.3,0.4
				c0.3,0.4,0.6,0.9,0.8,1.4c1.3,2.3,1.7,5.8,1.2,8.8c-0.8-0.1-1.5-0.3-2.2-0.7l-1.3-0.8c-1.4-0.9-3.1-1.3-4.7-1.3c0,0,0,0-0.1,0
				c-1.6,0-3.3,0.4-4.7,1.3l-0.6,0.4c-1.1,0.7-2.3,1-3.4,1c-1.2,0-2.4-0.3-3.4-1l-2.4-1.5c0,0,0,0,0,0c-0.3-0.2-0.6-0.3-1-0.4
				C102.8,97.8,102.9,96.7,103.4,95.8 M114.7,80.8l1.1-1l-0.7-1.3c-0.5-0.8-0.7-1.8-0.7-2.7c0-2.9,2.2-5.3,5.1-5.4l2.1-0.1l-0.5-2.1
				c-0.1-0.4-0.1-0.7-0.1-1c0-2.3,1.8-4.3,4-4.4l1.6-0.1v-1.8c0.1-1.6,1.4-2.9,2.9-2.9c0.9,0,1.6,0.4,2,0.8l1.2,1.1l1.2-1.2
				c0.5-0.5,1.3-0.8,2-0.7c0.9,0.1,1.8,0.9,2.1,1.8c0.1,0.3,0.1,0.6,0.1,1l-0.2,2h2c2.5,0,4.6,2,4.8,4.6l0.1,1.2l1.1,0.4
				c2.7,1,4.5,3.6,4.5,6.6c0,1.3-0.4,2.5-1.2,3.6c-1.2-1-2.4-1.7-3.5-2.3c-0.3-0.1-0.5-0.3-0.8-0.4c-0.1,0-0.2-0.1-0.2-0.3
				c0-0.3,0.1-0.6,0.3-0.8c0.8-0.9,1-2.3,0.7-3.5l-0.2-0.8c-0.3-1.4-1.3-2.5-2.7-2.9c-0.6-0.2-1.2-0.1-1.8,0l-0.4,0.1c0,0,0,0,0,0
				l-5.1,1.2l-5,1.1c-1.3,0.3-2.4,1.3-2.8,2.8c-0.2,0.6-0.1,1.2,0,1.9l0.1,0.4v0c0,0,0,0,0,0l0.1,0.5c0.3,1.2,1.1,2.2,2.2,2.7
				c0.3,0.1,0.5,0.3,0.6,0.6c0,0.1,0,0.2-0.1,0.4v0c-0.2,0.2-0.4,0.5-0.6,0.7c-0.2,0.3-0.4,0.5-0.6,0.8c-0.1,0.1-0.1,0.2-0.2,0.3
				c-0.1,0.2-0.3,0.4-0.4,0.6c-0.1,0.1-0.2,0.2-0.2,0.4c-0.1,0.2-0.3,0.4-0.4,0.7c-0.1,0.1-0.1,0.3-0.2,0.4
				c-0.1,0.3-0.3,0.5-0.4,0.8c-0.1,0.1-0.1,0.2-0.2,0.3c-0.2,0.4-0.3,0.8-0.4,1.2c0,0.1,0,0.1,0,0.2c-0.1,0.4-0.2,0.7-0.2,1.1
				c0,0.2,0,0.3,0,0.5c0,0.2,0,0.4,0,0.6c0,0,0,0,0,0c0,0,0-0.1-0.1-0.1c-0.3-0.4-0.6-0.8-0.9-1.1c-0.1-0.1-0.2-0.2-0.3-0.3
				c-0.3-0.3-0.5-0.6-0.8-0.8c-0.1-0.1-0.2-0.2-0.3-0.2c-0.3-0.3-0.7-0.6-1-0.8c-0.1-0.1-0.2-0.1-0.3-0.2c-0.3-0.2-0.5-0.3-0.8-0.5
				c-0.1-0.1-0.2-0.1-0.4-0.2c-0.3-0.1-0.5-0.2-0.8-0.3c-0.1,0-0.2-0.1-0.3-0.1c-0.3-0.1-0.6-0.2-0.9-0.2c0,0-0.1,0-0.1,0
				c-0.1,0-0.1,0-0.2,0c-0.2,0-0.4,0-0.6,0c-0.1,0-0.3,0-0.4,0c0,0-0.1,0-0.1,0c-0.3,0-0.5,0-0.8,0.1c-0.1,0-0.3,0-0.4,0.1
				c-0.3,0.1-0.7,0.2-1,0.3c-0.1,0-0.1,0-0.2,0c-0.9,0.3-1.7,0.7-2.5,1.3c-0.2-0.4-0.2-0.8-0.2-1.3
				C113.4,82.5,113.9,81.5,114.7,80.8 M131.6,73.8l5.1-1.2l4.6-1c0,0,0.1,0,0.1,0c0.3,0,0.6,0.2,0.7,0.6c0.1,0.3,0,0.5-0.1,0.6
				c-0.1,0.1-0.2,0.3-0.5,0.3l-9.7,2.2c-0.4,0.1-0.8-0.2-0.9-0.6C131,74.3,131.2,73.9,131.6,73.8 M144.4,94.2
				c-0.2,0.5-0.3,0.9-0.5,1.4c-0.1,0.3-0.2,0.7-0.3,1c-0.5,1.6-1,3.2-1.5,4.8l-1.2-0.7c-1.4-0.9-3.1-1.3-4.7-1.3c0,0,0,0-0.1,0
				c-0.2,0-0.4,0-0.6,0c-0.1,0-0.3,0-0.4,0c-1,0.1-1.9,0.3-2.8,0.8l-0.3-1.6c0.5,0,1,0.1,1.5,0.1c3.1,0,5.5-0.9,8.4-3
				C142.8,95.1,143.6,94.6,144.4,94.2 M139.9,92.8c-2.9,2.1-5,2.7-8.6,2.1l-1.1-5c-0.7-3.4,0.8-5.4,2.4-7.4c0.2-0.3,0.4-0.5,0.6-0.8
				c0,0,0,0,0,0c0.1-0.2,0.3-0.4,0.4-0.6c0.4-0.8,0.5-1.8,0.3-2.7l7.3-1.6c0.1,0.2,0.1,0.5,0.2,0.7c0.3,0.8,0.9,1.5,1.7,2
				c0.3,0.2,0.5,0.3,0.8,0.5c0.2,0.1,0.5,0.3,0.7,0.4c0.1,0.1,0.2,0.1,0.3,0.2c0.2,0.1,0.4,0.3,0.6,0.4c0.2,0.1,0.3,0.2,0.5,0.3
				c0.2,0.1,0.4,0.3,0.6,0.4c0.2,0.1,0.3,0.3,0.5,0.4c0.2,0.2,0.3,0.3,0.5,0.5c0.3,0.3,0.5,0.7,0.7,1.1c-0.7,1.7-1.4,3.4-2.1,5.1
				c-0.3,0.3-0.7,0.7-1,1C143.6,90.4,141.9,91.3,139.9,92.8 M155,78.3c0.7-1.3,1.5-3,2.3-4.7c2.6-5.7,6.3-13.6,10.4-15.8
				c1.5-0.8,2.8-0.8,4-0.1c2,1.3,3.2,4.6,3.2,6.9c-0.3,10.6-2.2,21.8-5.6,33.2c-0.1,0.4-0.4,1.1-0.7,2.2l-3,1.4
				c-0.1,0-0.1,0.1-0.2,0.1c-0.9,0.5-1.8,0.8-2.8,0.8c-1,0-1.9-0.3-2.8-0.8l-1.3-0.8c-1.4-0.9-3.1-1.3-4.7-1.3c0,0,0,0-0.1,0
				c-1.6,0-3.3,0.4-4.7,1.3l-1.2,0.8c-0.7,0.4-1.5,0.6-2.2,0.7c0-0.2,0.1-0.3,0.1-0.5c0.5-1.7,1-3.3,1.5-5c0.2-0.6,0.4-1.2,0.6-1.8
				c0.4-1.1,0.8-2.2,1.2-3.4c0.3-0.7,0.6-1.5,0.9-2.2C151.4,85.5,153.1,81.8,155,78.3 M174.4,101.3
				C174.4,101.3,174.4,101.3,174.4,101.3c0.1-0.9-0.3-1.6-1-2.1c-0.3-0.2-0.6-0.3-1-0.4c3.5-11.6,5.4-23,5.7-33.8
				c0.1-3.4-1.5-7.9-4.8-10c-1.6-1-4.1-1.8-7.5-0.1c-5.2,2.8-9,10.9-12,17.4c-0.2,0.4-0.3,0.7-0.5,1.1c-0.7-3.1-2.7-5.8-5.6-7.2
				c-0.7-3.3-3.3-5.9-6.5-6.6c0-0.2-0.1-0.4-0.1-0.6c-0.7-2.3-2.7-4.1-5-4.4c-1.3-0.2-2.6,0.1-3.7,0.8c-0.9-0.5-2-0.8-3.1-0.8
				c-3.1,0-5.6,2.2-6.3,5.1c-3.3,0.9-5.8,4.1-5.8,7.7c-3.8,1-6.6,4.5-6.6,8.7c0,1.1,0.2,2.2,0.6,3.2c-1,1.2-1.5,2.8-1.5,4.4
				c0,1,0.2,1.9,0.6,2.8c-1.8-2-4.2-3.6-7-3.5c-1,0-1.7,0.9-1.7,1.9c0,1,0.8,1.7,1.8,1.7c0.1,0,0.1,0,0.2,0c1.6,0,3.2,1.1,4.3,2.4
				c-2.8,0.8-6.1,2.2-7.7,5.2c-0.9,1.8-1.1,4.1-0.4,6.6c-0.3,0.5-0.5,1.1-0.4,1.8"/>
		</g>
	</g>
	<g>
		<polygon class="st1" points="86.7,150.1 38.7,152.2 86.9,154.4 		"/>
		<polygon class="st1" points="103.4,136.7 103.3,133.3 48.9,135.5 103.4,137.7 		"/>
		<polygon class="st1" points="103.2,116.5 16.9,118.7 103.4,120.9 		"/>
		<polygon class="st1" points="89.2,100.4 1,102.6 89.4,104.7 		"/>
	</g>
</g>
</svg>
