<svg width="105" height="45" viewBox="0 0 105 45" fill="none" xmlns="http://www.w3.org/2000/svg">
<path fill-rule="evenodd" clip-rule="evenodd" d="M8.9276 0.84436L4.47656 23.5806H14.6575L15.4911 19.4102H10.2506L13.9023 0.84436H8.9276Z" fill="white"/>
<path fill-rule="evenodd" clip-rule="evenodd" d="M22.5416 5.89386H22.5753C23.9889 5.89386 25.2991 4.85251 25.2991 2.9971C25.2991 1.75686 24.5922 0.61792 23.012 0.61792C21.3013 0.61792 20.3574 2.1886 20.3574 3.48195C20.3574 4.82224 20.9993 5.89386 22.5416 5.89386Z" fill="white"/>
<path fill-rule="evenodd" clip-rule="evenodd" d="M24.4613 7.55713H19.4884L16.3242 23.5807H21.3008L24.4613 7.55713Z" fill="white"/>
<path fill-rule="evenodd" clip-rule="evenodd" d="M29.294 17.397L30.0248 14.1031C30.2979 12.8005 31.1665 11.3694 32.1857 11.3694C33.1865 11.3694 33.1865 12.3471 33.1865 13.5188C33.1865 15.5644 32.0074 20.3938 30.1264 20.3938C29.3565 20.3938 29.087 19.8422 29.087 18.9905C29.087 18.4618 29.1575 17.9776 29.294 17.397ZM24.2207 20.0677C24.2207 22.6414 25.6981 23.8421 28.8181 23.8421C34.6644 23.8421 38.2904 18.4056 38.2904 11.9265C38.2904 10.4237 37.8868 7.29969 34.7992 7.29969C33.1185 7.29969 31.877 8.2416 30.9698 9.57695H30.9019L32.7596 0.871216H27.8547L24.4871 17.6558C24.3879 18.1802 24.2207 19.1239 24.2207 20.0677Z" fill="white"/>
<path fill-rule="evenodd" clip-rule="evenodd" d="M46.7595 11.1366C47.4927 11.1366 47.829 11.6289 47.829 12.443V12.4751C47.829 13.7437 46.3516 14.5911 44.3046 14.4633C44.5729 12.6369 45.5486 11.1366 46.7595 11.1366ZM45.1744 23.7823C47.2606 23.7823 48.7391 23.518 50.3163 22.9306L50.083 19.2852C48.9762 19.772 47.9999 20.0672 46.555 20.0672C45.477 20.0672 44.7714 19.6762 44.3708 19.2852C43.9721 18.8887 43.8618 18.4619 43.8618 18.0141C48.5052 18.2087 52.1642 16.5874 52.1642 11.9865C52.1342 9.63883 50.6508 7.2998 47.361 7.2998C41.851 7.2998 39.1309 12.8339 39.1309 17.6238C39.1309 21.1722 40.8495 23.7823 45.1744 23.7823Z" fill="white"/>
<path fill-rule="evenodd" clip-rule="evenodd" d="M56.3935 23.5807L57.7429 16.6143C58.2837 13.7737 59.962 12.1178 61.6384 12.1178C61.9048 12.1178 62.3078 12.1499 62.4806 12.1858L63.422 7.39406C63.1813 7.32612 62.9454 7.29956 62.6453 7.29956C61.3701 7.29956 59.8578 8.04444 58.5765 10.0963H58.4442C58.541 9.25133 58.6126 8.4033 58.6843 7.55712H54.4495C54.1781 9.18524 53.9062 10.9739 53.5748 12.6762L51.4219 23.5807H56.3935Z" fill="white"/>
<path fill-rule="evenodd" clip-rule="evenodd" d="M64.6973 17.5222C64.5705 18.1429 64.4388 19.0891 64.4388 19.8674C64.4388 22.2459 65.7753 23.782 68.632 23.782C69.5361 23.782 70.6416 23.782 71.4899 23.5183L72.1263 19.9359C71.6522 20.0014 71.1825 20.0014 70.9111 20.0014C70.1749 20.0014 69.5722 19.6759 69.5722 18.5993C69.5722 18.3381 69.6059 17.9477 69.6739 17.5222L70.9816 10.9133H74.1096L74.7448 7.55705H71.6522L72.4938 3.22302L67.2539 4.68499L66.6867 7.55705H64.7726L64.1289 10.9133H66.0111L64.6973 17.5222Z" fill="white"/>
<path fill-rule="evenodd" clip-rule="evenodd" d="M81.9689 10.811C82.1343 10.811 82.4344 10.8468 82.7719 10.9135L81.7668 15.8646C81.1947 18.665 80.3838 19.9077 79.476 19.9077C78.4709 19.9077 78.3331 18.9565 78.3331 17.8194C78.3331 15.9622 79.5765 10.811 81.9689 10.811ZM77.2949 23.8421C78.6418 23.8421 80.2821 22.9311 81.463 21.0467H81.5984C81.561 21.8928 81.5347 22.7396 81.4955 23.5809H85.7278C85.7278 21.8576 86.0231 18.5693 86.401 16.8368L88.2121 8.00689C87.041 7.62086 85.1858 7.29968 83.3078 7.29968C75.9119 7.29968 73.498 14.0654 73.498 18.9226C73.498 21.6952 74.6777 23.8421 77.2949 23.8421Z" fill="white"/>
<mask id="mask0_609_21678" style="mask-type:luminance" maskUnits="userSpaceOnUse" x="88" y="0" width="17" height="24">
<path fill-rule="evenodd" clip-rule="evenodd" d="M88.1504 0.871338H104.174V23.8416H88.1504V0.871338Z" fill="white"/>
</mask>
<g mask="url(#mask0_609_21678)">
<path fill-rule="evenodd" clip-rule="evenodd" d="M96.0725 17.688C95.6774 18.7609 95.1298 19.9078 94.265 19.9078C93.3891 19.9078 93.0528 19.1833 93.0528 17.9172C93.0528 15.5355 94.3979 10.8809 96.4755 10.8809C96.8167 10.8809 97.1119 10.9736 97.3189 11.1366L96.0725 17.688ZM99.1956 0.871338L97.9241 7.58701C97.5547 7.42272 97.0819 7.29981 96.5104 7.29981C91.3017 7.29981 88.1504 13.0933 88.1504 18.7609C88.1504 21.7948 89.5206 23.8416 92.0422 23.8416C93.3891 23.8416 94.9681 22.9306 96.0137 21.3037H96.0725L95.8703 23.581H99.9018C100.139 21.893 100.407 20.1629 100.746 18.4619L104.174 0.871338H99.1956Z" fill="white"/>
</g>
<path fill-rule="evenodd" clip-rule="evenodd" d="M36.4425 28.8234C21.1227 30.6146 8.1095 34.2087 0 38.355L10.9595 44.3881C18.7615 39.7941 30.9012 35.4953 45.8597 32.7455C67.2984 28.8055 88.4046 29.6171 88.4309 29.6054C72.3124 27.4424 53.9392 26.7667 36.4425 28.8234Z" fill="#FEFEFE"/>
</svg>
